<?xml version="1.0" encoding="UTF-8" standalone="no"?>
<!-- Generator: Adobe Illustrator 16.0.0, SVG Export Plug-In . SVG Version: 6.00 Build 0)  -->

<svg
   xmlns:dc="http://purl.org/dc/elements/1.1/"
   xmlns:cc="http://creativecommons.org/ns#"
   xmlns:rdf="http://www.w3.org/1999/02/22-rdf-syntax-ns#"
   xmlns:svg="http://www.w3.org/2000/svg"
   xmlns="http://www.w3.org/2000/svg"
   xmlns:sodipodi="http://sodipodi.sourceforge.net/DTD/sodipodi-0.dtd"
   xmlns:inkscape="http://www.inkscape.org/namespaces/inkscape"
   version="1.1"
   id="Capa_1"
   x="0px"
   y="0px"
   width="49.652px"
   height="49.652px"
   viewBox="0 0 49.652 49.652"
   style="enable-background:new 0 0 49.652 49.652;"
   xml:space="preserve"
   inkscape:version="0.48.5 r10040"
   sodipodi:docname="linkedin1.svg"><metadata
   id="metadata51"><rdf:RDF><cc:Work
       rdf:about=""><dc:format>image/svg+xml</dc:format><dc:type
         rdf:resource="http://purl.org/dc/dcmitype/StillImage" /><dc:title></dc:title></cc:Work></rdf:RDF></metadata><defs
   id="defs49" /><sodipodi:namedview
   pagecolor="#ffffff"
   bordercolor="#666666"
   borderopacity="1"
   objecttolerance="10"
   gridtolerance="10"
   guidetolerance="10"
   inkscape:pageopacity="0"
   inkscape:pageshadow="2"
   inkscape:window-width="1920"
   inkscape:window-height="1018"
   id="namedview47"
   showgrid="false"
   inkscape:zoom="4.7531"
   inkscape:cx="-15.464"
   inkscape:cy="24.826"
   inkscape:window-x="-8"
   inkscape:window-y="-8"
   inkscape:window-maximized="1"
   inkscape:current-layer="Capa_1" />
<g
   id="g3"
   style="fill:#0077b5;fill-opacity:1">
	<g
   id="g5"
   style="fill:#0077b5;fill-opacity:1">
		<g
   id="g7"
   style="fill:#0077b5;fill-opacity:1">
			<path
   d="M29.35,21.298c-2.125,0-3.074,1.168-3.605,1.988v-1.704h-4.002c0.052,1.128,0,12.041,0,12.041h4.002v-6.727     c0-0.359,0.023-0.72,0.131-0.977c0.29-0.72,0.948-1.465,2.054-1.465c1.448,0,2.027,1.104,2.027,2.724v6.442h4.002h0.001v-6.905     C33.958,23.019,31.983,21.298,29.35,21.298z M25.742,23.328h-0.025c0.008-0.014,0.02-0.027,0.025-0.041V23.328z"
   id="path9"
   style="fill:#0077b5;fill-opacity:1" />
			<rect
   x="15.523"
   y="21.582"
   width="4.002"
   height="12.041"
   id="rect11"
   style="fill:#0077b5;fill-opacity:1" />
			<path
   d="M24.826,0C11.137,0,0,11.137,0,24.826c0,13.688,11.137,24.826,24.826,24.826c13.688,0,24.826-11.138,24.826-24.826     C49.652,11.137,38.516,0,24.826,0z M37.991,36.055c0,1.056-0.876,1.91-1.959,1.91H13.451c-1.08,0-1.957-0.854-1.957-1.91V13.211     c0-1.055,0.877-1.91,1.957-1.91h22.581c1.082,0,1.959,0.856,1.959,1.91V36.055z"
   id="path13"
   style="fill:#0077b5;fill-opacity:1" />
			<path
   d="M17.551,15.777c-1.368,0-2.264,0.898-2.264,2.08c0,1.155,0.869,2.08,2.211,2.08h0.026c1.396,0,2.265-0.925,2.265-2.08     C19.762,16.676,18.921,15.777,17.551,15.777z"
   id="path15"
   style="fill:#0077b5;fill-opacity:1" />
		</g>
	</g>
</g>
<g
   id="g17">
</g>
<g
   id="g19">
</g>
<g
   id="g21">
</g>
<g
   id="g23">
</g>
<g
   id="g25">
</g>
<g
   id="g27">
</g>
<g
   id="g29">
</g>
<g
   id="g31">
</g>
<g
   id="g33">
</g>
<g
   id="g35">
</g>
<g
   id="g37">
</g>
<g
   id="g39">
</g>
<g
   id="g41">
</g>
<g
   id="g43">
</g>
<g
   id="g45">
</g>
</svg>