<?xml version="1.0" encoding="UTF-8" standalone="no"?>
<!-- Generator: Adobe Illustrator 16.0.0, SVG Export Plug-In . SVG Version: 6.00 Build 0)  -->

<svg
   xmlns:dc="http://purl.org/dc/elements/1.1/"
   xmlns:cc="http://creativecommons.org/ns#"
   xmlns:rdf="http://www.w3.org/1999/02/22-rdf-syntax-ns#"
   xmlns:svg="http://www.w3.org/2000/svg"
   xmlns="http://www.w3.org/2000/svg"
   xmlns:sodipodi="http://sodipodi.sourceforge.net/DTD/sodipodi-0.dtd"
   xmlns:inkscape="http://www.inkscape.org/namespaces/inkscape"
   version="1.1"
   id="Capa_1"
   x="0px"
   y="0px"
   width="512px"
   height="512px"
   viewBox="0 0 512 512"
   style="enable-background:new 0 0 512 512;"
   xml:space="preserve"
   inkscape:version="0.48.5 r10040"
   sodipodi:docname="xing1.svg"><metadata
   id="metadata41"><rdf:RDF><cc:Work
       rdf:about=""><dc:format>image/svg+xml</dc:format><dc:type
         rdf:resource="http://purl.org/dc/dcmitype/StillImage" /><dc:title></dc:title></cc:Work></rdf:RDF></metadata><defs
   id="defs39" /><sodipodi:namedview
   pagecolor="#ffffff"
   bordercolor="#666666"
   borderopacity="1"
   objecttolerance="10"
   gridtolerance="10"
   guidetolerance="10"
   inkscape:pageopacity="0"
   inkscape:pageshadow="2"
   inkscape:window-width="1920"
   inkscape:window-height="1018"
   id="namedview37"
   showgrid="false"
   inkscape:zoom="0.46094"
   inkscape:cx="-159.46"
   inkscape:cy="256"
   inkscape:window-x="-8"
   inkscape:window-y="-8"
   inkscape:window-maximized="1"
   inkscape:current-layer="Capa_1" />
<g
   id="g3"
   style="fill:#1e8687;fill-opacity:1">
	<path
   d="M256,0C114.615,0,0,114.615,0,256s114.615,256,256,256s256-114.615,256-256S397.385,0,256,0z M172.741,320.203h-46.267   c-2.788,0-4.87-1.247-6.049-3.146c-1.219-1.976-1.282-4.533,0-7.08l49.162-86.535c0.052-0.095,0.052-0.158,0-0.263l-31.284-54.019   c-1.294-2.569-1.483-5.106-0.263-7.079c1.179-1.909,3.522-2.885,6.31-2.885h46.267c7.1,0,10.579,4.562,12.884,8.654   c0,0,31.62,55.025,31.809,55.328c-1.873,3.295-49.95,88.11-49.95,88.11C182.994,315.546,179.661,320.203,172.741,320.203z    M391.525,106.069L289.084,286.741c-0.062,0.097-0.062,0.214,0,0.306l65.229,118.875c1.295,2.559,1.326,5.16,0.096,7.133   c-1.178,1.896-3.354,2.945-6.141,2.945h-46.217c-7.089,0-10.634-4.699-12.925-8.79c0,0-65.576-119.996-65.744-120.308   c3.28-5.791,102.958-182.112,102.958-182.112c2.48-4.448,5.479-8.79,12.387-8.79h46.742c2.789,0,4.979,1.049,6.152,2.947   C392.842,100.921,392.809,103.52,391.525,106.069z"
   id="path5"
   style="fill:#1e8687;fill-opacity:1" />
</g>
<g
   id="g7">
</g>
<g
   id="g9">
</g>
<g
   id="g11">
</g>
<g
   id="g13">
</g>
<g
   id="g15">
</g>
<g
   id="g17">
</g>
<g
   id="g19">
</g>
<g
   id="g21">
</g>
<g
   id="g23">
</g>
<g
   id="g25">
</g>
<g
   id="g27">
</g>
<g
   id="g29">
</g>
<g
   id="g31">
</g>
<g
   id="g33">
</g>
<g
   id="g35">
</g>
</svg>