<?xml version="1.0" standalone="no"?>
<!DOCTYPE svg PUBLIC "-//W3C//DTD SVG 20010904//EN"
 "http://www.w3.org/TR/2001/REC-SVG-20010904/DTD/svg10.dtd">
<svg version="1.0" xmlns="http://www.w3.org/2000/svg"
 width="260.000000pt" height="260.000000pt" viewBox="0 0 260.000000 260.000000"
 preserveAspectRatio="xMidYMid meet">
<metadata>
Created by potrace 1.11, written by Peter Selinger 2001-2013
</metadata>
<g transform="translate(0.000000,260.000000) scale(0.100000,-0.100000)"
fill="#000000" stroke="none">
<path d="M1670 2268 c-23 -29 -48 -61 -56 -71 -8 -9 -14 -20 -14 -23 0 -3 -16
-31 -37 -62 -40 -64 -52 -85 -111 -194 -23 -42 -54 -96 -70 -120 -16 -23 -39
-62 -52 -85 -13 -23 -26 -40 -30 -38 -7 4 -5 114 4 280 3 60 -14 92 -61 111
-63 27 -77 20 -111 -48 -17 -35 -54 -106 -82 -158 -28 -52 -62 -124 -76 -160
-14 -36 -39 -92 -55 -126 -42 -88 -114 -261 -171 -409 -27 -71 -60 -157 -73
-190 -13 -33 -31 -89 -40 -125 -16 -61 -16 -65 2 -78 23 -17 90 -11 125 12 16
10 30 31 33 49 18 83 101 338 142 431 19 44 32 85 29 93 -3 8 -2 12 3 9 5 -3
14 9 21 27 7 17 20 48 30 67 10 19 21 46 25 59 4 13 25 62 47 110 25 52 36 87
29 89 -6 2 -11 8 -11 14 0 7 5 7 13 -1 8 -6 16 -9 19 -6 5 6 26 -80 33 -136
11 -94 38 -153 65 -146 10 2 25 -4 33 -13 26 -31 102 1 113 47 4 14 17 47 30
74 13 27 24 51 24 54 0 2 15 28 33 57 30 47 78 141 83 161 1 4 2 19 3 35 1 21
3 24 11 12 7 -12 12 -8 24 20 9 19 22 46 30 60 14 24 15 22 12 -30 -2 -30 -13
-87 -25 -127 -11 -40 -28 -114 -37 -165 -9 -51 -18 -97 -21 -102 -5 -8 -8 -25
-18 -116 -1 -14 -4 -27 -5 -30 -1 -3 -2 -9 -1 -14 1 -4 -3 -13 -8 -20 -5 -6
-8 -44 -7 -84 0 -41 -1 -75 -5 -77 -10 -7 -1 -323 10 -343 6 -11 8 -22 5 -25
-3 -3 -3 -15 1 -27 5 -14 12 -20 23 -16 15 5 15 5 2 -6 -18 -15 -15 -48 5 -63
7 -6 15 -19 17 -30 2 -11 10 -19 17 -17 7 1 10 -2 6 -8 -24 -39 125 -150 224
-166 38 -6 44 -4 76 30 40 43 49 92 15 81 -33 -10 -104 38 -137 92 -38 62 -59
128 -75 233 -13 87 -15 241 -4 340 3 30 8 111 11 180 3 69 12 148 20 175 14
48 44 178 50 220 4 25 16 102 20 132 2 12 5 25 8 30 3 4 8 28 11 53 3 25 10
59 14 75 14 49 7 133 -13 155 -10 11 -22 17 -26 14 -5 -3 -12 2 -15 10 -4 10
-18 16 -35 16 -23 0 -37 -11 -69 -52z m-33 -280 c-3 -8 -6 -5 -6 6 -1 11 2 17
5 13 3 -3 4 -12 1 -19z m-97 -163 c0 -8 -4 -15 -10 -15 -5 0 -7 7 -4 15 4 8 8
15 10 15 2 0 4 -7 4 -15z"/>
</g>
</svg>
