<?xml version="1.0" encoding="UTF-8" standalone="no"?>
<!-- Created with Inkscape (http://www.inkscape.org/) -->

<svg
   xmlns:dc="http://purl.org/dc/elements/1.1/"
   xmlns:cc="http://creativecommons.org/ns#"
   xmlns:rdf="http://www.w3.org/1999/02/22-rdf-syntax-ns#"
   xmlns:svg="http://www.w3.org/2000/svg"
   xmlns="http://www.w3.org/2000/svg"
   xmlns:sodipodi="http://sodipodi.sourceforge.net/DTD/sodipodi-0.dtd"
   xmlns:inkscape="http://www.inkscape.org/namespaces/inkscape"
   id="svg3336"
   version="1.1"
   inkscape:version="0.91 r13725"
   width="200.64545"
   height="173.8316"
   viewBox="0 0 200.64545 173.8316"
   sodipodi:docname="logo28.svg">
  <metadata
     id="metadata3342">
    <rdf:RDF>
      <cc:Work
         rdf:about="">
        <dc:format>image/svg+xml</dc:format>
        <dc:type
           rdf:resource="http://purl.org/dc/dcmitype/StillImage" />
        <dc:title />
      </cc:Work>
    </rdf:RDF>
  </metadata>
  <defs
     id="defs3340" />
  <sodipodi:namedview
     pagecolor="#ffffff"
     bordercolor="#666666"
     borderopacity="1"
     objecttolerance="10"
     gridtolerance="10"
     guidetolerance="10"
     inkscape:pageopacity="0"
     inkscape:pageshadow="2"
     inkscape:window-width="1920"
     inkscape:window-height="1002"
     id="namedview3338"
     showgrid="false"
     fit-margin-top="0"
     fit-margin-left="0"
     fit-margin-right="0"
     fit-margin-bottom="0"
     inkscape:zoom="2.3179629"
     inkscape:cx="192.19934"
     inkscape:cy="77.89445"
     inkscape:window-x="-9"
     inkscape:window-y="-9"
     inkscape:window-maximized="1"
     inkscape:current-layer="svg3336" />
  <path
     style="fill:#000000"
     d="m 157.39131,11.658017 6.50846,11.277224 -15.6093,27.16029 c -8.58511,14.938143 -28.26111,48.816525 -43.72445,75.285269 l -28.420159,48.81126 -12.954636,0.0483 -12.954647,-0.028 -25.225884,-43.30747 C 11.136469,107.08584 0.03096724,86.958091 0.33180939,86.176637 1.0321608,84.357413 19.439655,52.550098 36.781494,23.193331 l 13.475874,-22.81252652 50.312742,-2.22e-6 50.31273,8.23e-6 z m 24.17711,40.910288 c 10.61045,17.71138 19.75221,34.287801 19.3926,35.163882 -0.21584,0.52584 -11.57816,20.180643 -25.2496,43.677343 l -24.85715,42.72126 -24.33908,1e-5 c -26.21225,0 -24.92223,0.57004 -24.33145,-0.96953 0.38165,-0.99456 12.82597,-22.5052 26.81528,-46.77626 13.9893,-24.27107 30.19036,-52.423603 36.00233,-62.561205 5.81197,-10.137612 10.94837,-18.434468 11.41422,-18.4375 0.46585,-0.003 2.78463,3.228866 5.15285,7.182 z"
     id="path3346"
     inkscape:connector-curvature="0"
     sodipodi:nodetypes="ccsscccsssccccssscsssscs" />
  <text
     xml:space="preserve"
     style="font-style:normal;font-weight:normal;font-size:40px;line-height:125%;font-family:sans-serif;letter-spacing:0px;word-spacing:0px;fill:#f9f9f9;fill-opacity:1;stroke:none;stroke-width:1px;stroke-linecap:butt;stroke-linejoin:miter;stroke-opacity:1"
     x="61.692101"
     y="74.82225"
     id="text3333"
     sodipodi:linespacing="125%"><tspan
       sodipodi:role="line"
       id="tspan3335"
       x="61.692101"
       y="74.82225" /></text>
  <text
     xml:space="preserve"
     style="font-style:normal;font-weight:normal;font-size:40px;line-height:125%;font-family:sans-serif;letter-spacing:0px;word-spacing:0px;fill:#f9f9f9;fill-opacity:1;stroke:none;stroke-width:1px;stroke-linecap:butt;stroke-linejoin:miter;stroke-opacity:1"
     x="92.322449"
     y="70.939529"
     id="text3337"
     sodipodi:linespacing="125%"><tspan
       sodipodi:role="line"
       id="tspan3339"
       x="92.322449"
       y="70.939529" /></text>
</svg>
