<?xml version="1.0" encoding="UTF-8" standalone="no"?>
<svg xmlns:rdf="http://www.w3.org/1999/02/22-rdf-syntax-ns#" xmlns="http://www.w3.org/2000/svg" height="81.3" viewBox="0 0 89.699997 81.300003" width="89.7" version="1.1" xmlns:cc="http://creativecommons.org/ns#" xmlns:dc="http://purl.org/dc/elements/1.1/">
 <path d="m40.886 74.07c-3.569-0.415-6.947-1.415-10.436-3.089-5.3683-2.5753-10.95-7.222-10.95-9.1157 0-1.1365 6.3625-9.8941 7.3724-10.148 0.96453-0.24208 1.3542 0.05568 3.1828 2.4324 1.4119 1.835 1.7525 2.1115 2.6997 2.1913 1.269 0.10687 1.2116 0.16759 6.1762-6.5413 4.5616-6.1644 3.8131-6.3676 10.743 2.9165 2.983 3.9966 5.7506 7.5187 6.15 7.827 1.3579 1.0479 2.6462 1.2565 7.761 1.2565 5.1329 0 5.7152 0.12508 5.7152 1.2277 0 0.61011-2.8744 3.3242-5.5196 5.2118-2.577 1.8389-7.5922 4.1853-10.538 4.93-4.3878 1.1094-8.1861 1.3863-12.357 0.9007zm-27.916-24.216c-1.284-0.829-1.822-10.618-0.836-15.204 2.887-13.432 12.653-23.199 26.116-26.121 4.918-1.0674 11.937-0.6067 17.093 1.1219 11.08 3.7149 19.383 13.183 21.923 24.999 0.68329 3.1786 0.69885 9.6694 0.03052 12.729-0.48616 2.2259-0.84756 2.7887-1.6965 2.6423-0.2475-0.04268-2.5596-3.0192-5.1381-6.6145-2.5784-3.5953-4.9409-6.7284-5.25-6.9625-0.74344-0.563-2.8145-0.55947-3.622 0.0062-0.35398 0.24793-1.7458 2.0045-3.0929 3.9034-1.3471 1.899-2.6987 3.5861-3.0034 3.7492-0.71837 0.38446-2.2773 0.37989-3.0036-0.0088-0.315-0.167-3.732-4.724-7.595-10.124-3.862-5.401-7.284-10.055-7.604-10.341-0.896-0.804-2.201-0.927-3.358-0.316-0.766 0.405-3.32 3.756-10.35 13.584-5.134 7.176-9.536 13.082-9.784 13.125-0.2475 0.04268-0.62092-0.03279-0.82981-0.16771z" fill="#323232"/>
</svg>
